<?xml version="1.0" encoding="iso-8859-1"?>
<!-- Generator: Adobe Illustrator 16.0.0, SVG Export Plug-In . SVG Version: 6.00 Build 0)  -->
<!DOCTYPE svg PUBLIC "-//W3C//DTD SVG 1.1//EN" "http://www.w3.org/Graphics/SVG/1.1/DTD/svg11.dtd">
<svg version="1.1" id="Capa_1" xmlns="http://www.w3.org/2000/svg" xmlns:xlink="http://www.w3.org/1999/xlink" x="0px" y="0px"
	 width="29.148px" height="29.148px" viewBox="0 0 29.148 29.148" style="enable-background:new 0 0 29.148 29.148;"
	 xml:space="preserve">
<g>
	<path d="M6.923,29.148l16.323-0.006l2.688-25.154L3.247,4.053L6.923,29.148z M14.745,12.438c3.896-0.043,6.929,1.813,6.771,4.151
		c-0.152,2.338-3.107,4.25-6.597,4.271c-3.49,0.021-6.521-1.838-6.773-4.154C7.894,14.393,10.849,12.481,14.745,12.438z M28.871,0
		v9.421h-2V2H2.277v7.421h-2V0H28.871z M17.727,16.951l-2.286,0.02l-0.007,0.219c-0.055,0.727-0.246,1.219-0.571,1.475
		c-0.322,0.258-0.917,0.391-1.792,0.396c-0.939,0.007-1.605-0.129-2.006-0.398c-0.403-0.275-0.63-0.757-0.687-1.445l-0.022-0.199
		l-1.021,0.01l-0.062-0.656l1.03-0.009l-0.006-0.185c-0.057-0.687,0.097-1.17,0.458-1.453c0.364-0.283,1.029-0.43,1.982-0.438h0.323
		l0.042,0.974l-0.162,0.002c-0.576,0.008-0.943,0.066-1.105,0.184c-0.157,0.113-0.227,0.368-0.201,0.761l0.002,0.146l2.496-0.021
		c-0.022-0.77,0.145-1.294,0.497-1.581c0.357-0.28,1.036-0.431,2.034-0.44c0.969-0.008,1.628,0.125,1.977,0.404
		c0.348,0.28,0.502,0.805,0.478,1.573l0.896-0.009l-0.033,0.658l-0.889,0.01c-0.023,0.73-0.205,1.234-0.539,1.509
		c-0.328,0.271-0.934,0.412-1.806,0.418l-0.203,0.002l0.003-0.944l0.163-0.004c0.668-0.008,1.005-0.275,1.017-0.813L17.727,16.951z
		 M17.747,16.29l-0.004-0.14c0.011-0.581-0.354-0.866-1.095-0.859c-0.773,0.008-1.159,0.301-1.151,0.875
		c0.001,0.006-0.005,0.053-0.013,0.145L17.747,16.29z M11.678,17.002l0.009,0.141c0.039,0.625,0.477,0.937,1.314,0.929
		c0.459-0.001,0.76-0.074,0.9-0.217c0.145-0.14,0.207-0.429,0.194-0.87L11.678,17.002z"/>
</g>
<g>
</g>
<g>
</g>
<g>
</g>
<g>
</g>
<g>
</g>
<g>
</g>
<g>
</g>
<g>
</g>
<g>
</g>
<g>
</g>
<g>
</g>
<g>
</g>
<g>
</g>
<g>
</g>
<g>
</g>
</svg>
