<?xml version="1.0" encoding="utf-8"?>
<!-- Generator: Adobe Illustrator 19.2.1, SVG Export Plug-In . SVG Version: 6.00 Build 0)  -->
<svg version="1.1" id="Layer_1" xmlns="http://www.w3.org/2000/svg" xmlns:xlink="http://www.w3.org/1999/xlink" x="0px" y="0px"
	 width="52px" height="52px" viewBox="0 0 52 52" style="enable-background:new 0 0 52 52;" xml:space="preserve">
<style type="text/css">
	.st0{fill:#FFFFFF;}
	.st1{fill:#010101;}
	.st2{clip-path:url(#SVGID_2_);}
	.st3{fill:#90D0E3;}
</style>
<g>
	<g>
		<path class="st0" d="M26,47.3c11.8,0,21.3-9.5,21.3-21.3S37.8,4.7,26,4.7S4.7,14.2,4.7,26S14.2,47.3,26,47.3"/>
	</g>
	<g>
		<path class="st1" d="M26,52C11.7,52,0,40.3,0,26C0,11.7,11.7,0,26,0c14.3,0,26,11.7,26,26C52,40.3,40.3,52,26,52z M26,9.4
			C16.8,9.4,9.4,16.8,9.4,26c0,9.2,7.5,16.6,16.6,16.6c9.2,0,16.6-7.5,16.6-16.6C42.6,16.8,35.2,9.4,26,9.4z"/>
	</g>
	<g>
		<g>
			<defs>
				<rect id="SVGID_1_" x="15.9" y="12.1" width="20.1" height="26.1"/>
			</defs>
			<clipPath id="SVGID_2_">
				<use xlink:href="#SVGID_1_"  style="overflow:visible;"/>
			</clipPath>
			<g class="st2">
				<path class="st3" d="M33.3,25.6c0-0.1-0.1-0.1-0.1-0.2L27,15.1l-1-1.7l-1,1.7h0l-6.2,10.4c0,0,0,0.1,0,0.1
					c-0.7,1.3-1.1,2.7-1.1,4.1c0,4.6,3.8,8.4,8.4,8.4s8.4-3.8,8.4-8.4C34.4,28.2,34,26.8,33.3,25.6"/>
			</g>
		</g>
	</g>
</g>
</svg>
