<?xml version="1.0" encoding="utf-8"?>
<!-- Generator: Adobe Illustrator 19.2.1, SVG Export Plug-In . SVG Version: 6.00 Build 0)  -->
<svg version="1.1" id="Layer_1" xmlns="http://www.w3.org/2000/svg" xmlns:xlink="http://www.w3.org/1999/xlink" x="0px" y="0px"
	 width="52px" height="52px" viewBox="0 0 52 52" style="enable-background:new 0 0 52 52;" xml:space="preserve">
<path id="cup" d="M43.3,39H39v2.2c0,6-4.9,10.8-10.8,10.8H10.8C4.9,52,0,47.1,0,41.2v-26c0-2.4,1.9-4.3,4.3-4.3h30.3
	c2.4,0,4.3,1.9,4.3,4.3v6.5h4.3c4.8,0,8.7,3.9,8.7,8.7S48.1,39,43.3,39z M34.7,15.2H4.3v26c0,3.6,2.9,6.5,6.5,6.5h17.3
	c3.6,0,6.5-2.9,6.5-6.5V15.2z M43.3,26H39v8.7h4.3c2.4,0,4.3-1.9,4.3-4.3S45.7,26,43.3,26z M28.2,6.5c-1.2,0-2.2-1-2.2-2.2V2.2
	C26,1,27,0,28.2,0c1.2,0,2.2,1,2.2,2.2v2.2C30.3,5.5,29.4,6.5,28.2,6.5z M19.5,6.5c-1.2,0-2.2-1-2.2-2.2V2.2c0-1.2,1-2.2,2.2-2.2
	s2.2,1,2.2,2.2v2.2C21.7,5.5,20.7,6.5,19.5,6.5z M10.8,6.5c-1.2,0-2.2-1-2.2-2.2V2.2C8.7,1,9.6,0,10.8,0S13,1,13,2.2v2.2
	C13,5.5,12,6.5,10.8,6.5z"/>
</svg>
